<svg width="121" height="28" viewBox="0 0 121 28" fill="none" xmlns="http://www.w3.org/2000/svg">
<path d="M15.5719 0.324938V0.198608H22.3597V0.315914H22.1963C21.6065 0.315914 20.9622 0.559549 20.2362 1.04682C19.5193 1.53409 18.9477 1.98527 18.5393 2.40035C18.1309 2.80641 17.4685 3.51927 16.561 4.52088L11.3432 10.6027L21.8878 27.8738H23.9568V27.9911H15.3723V27.8738H18.0493L9.14714 13.1835L5.78956 17.1177V27.8738H8.26691V27.9911H0V27.8738H2.51365V0.324938H0V0.198608H8.26691V0.315914H5.78956V16.9102L16.4068 4.48478C17.4413 3.42903 17.9495 2.46351 17.9222 1.60628C17.895 0.749043 17.2053 0.315914 15.8442 0.315914H15.5719V0.324938Z" fill="black"/>
<path d="M35.418 0.324938V0.198608H43.6849V0.315914H41.2075V27.8738H43.6849V27.9911H35.418V27.8738H37.9316V0.324938H35.418Z" fill="black"/>
<path d="M74.2298 0.324938V0.198608H81.0176V0.315914H80.8542C79.3388 0.315914 78.1137 1.7687 77.1791 4.6833L69.0301 27.9911H67.551L57.0971 0.324938H54.8647V0.198608H63.2496V0.315914H60.618L69.874 25.0584L77.0248 4.64721C77.533 3.48317 77.5783 2.47254 77.1609 1.60628C76.7526 0.749043 75.8632 0.324938 74.5111 0.324938H74.2298Z" fill="black"/>
<path d="M110.555 0.324938V0.198608H117.343V0.315914H117.18C115.746 0.315914 113.985 1.7687 111.907 4.6833L105.718 13.9775V27.8738H108.196V27.9911H99.9288V27.8738H102.442V14.4197L93.5131 0.324938H91.4351V0.198608H99.9379V0.315914H97.2609L105.727 13.7339L111.753 4.63818C112.66 3.47415 113.06 2.46351 112.969 1.59725C112.878 0.74002 112.161 0.306891 110.836 0.306891H110.555V0.324938Z" fill="black"/>
<path d="M121 1.06478C121 1.66935 120.519 2.1476 119.902 2.1476C119.285 2.1476 118.795 1.66935 118.795 1.06478C118.795 0.469224 119.285 0 119.902 0C120.528 0 121 0.478247 121 1.06478ZM119.076 1.06478C119.076 1.54302 119.43 1.91299 119.911 1.91299C120.383 1.91299 120.728 1.534 120.728 1.06478C120.728 0.58653 120.383 0.207541 119.902 0.207541C119.43 0.216565 119.076 0.595553 119.076 1.06478ZM119.73 1.62424H119.485V0.559459C119.584 0.541412 119.721 0.523365 119.893 0.523365C120.093 0.523365 120.183 0.559459 120.265 0.604577C120.319 0.649694 120.374 0.730906 120.374 0.839189C120.374 0.956495 120.283 1.04673 120.156 1.08282V1.09185C120.265 1.12794 120.319 1.20915 120.356 1.35353C120.392 1.51595 120.41 1.57912 120.437 1.62424H120.165C120.129 1.58814 120.111 1.48888 120.084 1.36255C120.065 1.24525 120.002 1.19111 119.866 1.19111H119.748V1.62424H119.73ZM119.739 1.01966H119.857C119.993 1.01966 120.102 0.974542 120.102 0.866259C120.102 0.767 120.029 0.703836 119.875 0.703836C119.811 0.703836 119.766 0.712859 119.739 0.712859V1.01966Z" fill="black"/>
</svg>
